<svg width="103" height="20" viewBox="0 0 103 20" fill="none" xmlns="http://www.w3.org/2000/svg">
<path d="M6.75266 4.99976L4.01207 3.41748L1.27148 4.99976L4.01207 6.58204L6.75266 4.99976Z" fill="#E2E4E8"/>
<path d="M1.27148 8.16456L4.01207 9.74684V6.58228L1.27148 5V8.16456Z" fill="#D92E13"/>
<path d="M6.7523 8.16456V5L4.01172 6.58228V9.74684L6.7523 8.16456Z" fill="#681F13"/>
<path d="M6.75266 11.8352L4.01207 10.2529L1.27148 11.8352L4.01207 13.4175L6.75266 11.8352Z" fill="#E2E4E8"/>
<path d="M1.27148 14.9995L4.01207 16.5818V13.4172L1.27148 11.835V14.9995Z" fill="#D92E13"/>
<path d="M6.7523 14.9995V11.835L4.01172 13.4172V16.5818L6.7523 14.9995Z" fill="#681F13"/>
<path d="M12.74 1.58228L9.99938 0L7.25879 1.58228L9.99938 3.16456L12.74 1.58228Z" fill="#E2E4E8"/>
<path d="M7.25879 4.74708L9.99938 6.32936V3.1648L7.25879 1.58252V4.74708Z" fill="#D92E13"/>
<path d="M12.7396 4.74708V1.58252L9.99902 3.1648V6.32936L12.7396 4.74708Z" fill="#681F13"/>
<path d="M12.74 8.41773L9.99938 6.83545L7.25879 8.41773L9.99938 10L12.74 8.41773Z" fill="#E2E4E8"/>
<path d="M7.25879 11.582L9.99938 13.1643V9.99976L7.25879 8.41748V11.582Z" fill="#D92E13"/>
<path d="M12.7396 11.582V8.41748L9.99902 9.99976V13.1643L12.7396 11.582Z" fill="#681F13"/>
<path d="M12.74 15.2532L9.99938 13.6709L7.25879 15.2532L9.99938 16.8355L12.74 15.2532Z" fill="#E2E4E8"/>
<path d="M7.25879 18.4175L9.99938 19.9998V16.8352L7.25879 15.2529V18.4175Z" fill="#D92E13"/>
<path d="M12.7396 18.4175V15.2529L9.99902 16.8352V19.9998L12.7396 18.4175Z" fill="#681F13"/>
<path d="M18.7273 4.99976L15.9867 3.41748L13.2461 4.99976L15.9867 6.58204L18.7273 4.99976Z" fill="#E2E4E8"/>
<path d="M13.2461 8.16407L15.9867 9.74635V6.58179L13.2461 4.99951V8.16407Z" fill="#D92E13"/>
<path d="M18.7269 8.16407V4.99951L15.9863 6.58179V9.74635L18.7269 8.16407Z" fill="#681F13"/>
<path d="M18.7273 11.8347L15.9867 10.2524L13.2461 11.8347L15.9867 13.417L18.7273 11.8347Z" fill="#E2E4E8"/>
<path d="M13.2461 14.9995L15.9867 16.5818V13.4172L13.2461 11.835V14.9995Z" fill="#D92E13"/>
<path d="M18.7269 14.9995V11.835L15.9863 13.4172V16.5818L18.7269 14.9995Z" fill="#681F13"/>
<path d="M26 15.3422V4.9174H29.7159C30.5235 4.9174 31.1937 5.05653 31.7265 5.3348C32.2627 5.61307 32.6631 5.99823 32.9278 6.49029C33.1925 6.97895 33.3249 7.54397 33.3249 8.18534C33.3249 8.82332 33.1908 9.38494 32.9227 9.87021C32.658 10.3521 32.2576 10.7271 31.7214 10.9952C31.1887 11.2632 30.5184 11.3973 29.7108 11.3973H26.8959V10.0433H29.5683C30.0773 10.0433 30.4913 9.97032 30.8103 9.8244C31.1327 9.67848 31.3685 9.46638 31.5178 9.18812C31.6671 8.90985 31.7418 8.57559 31.7418 8.18534C31.7418 7.79169 31.6654 7.45065 31.5127 7.1622C31.3634 6.87375 31.1276 6.65317 30.8052 6.50047C30.4862 6.34437 30.0671 6.26632 29.5479 6.26632H27.5729V15.3422H26ZM31.1462 10.6388L33.7219 15.3422H31.9301L29.4054 10.6388H31.1462Z" fill="#06090B"/>
<path d="M38.3884 15.5C37.6181 15.5 36.9546 15.3354 36.3981 15.0063C35.845 14.6737 35.4174 14.2071 35.1154 13.6065C34.8167 13.0024 34.6674 12.2949 34.6674 11.4838C34.6674 10.683 34.8167 9.9771 35.1154 9.36628C35.4174 8.75545 35.8382 8.27866 36.3777 7.93592C36.9207 7.59317 37.5553 7.4218 38.2815 7.4218C38.7226 7.4218 39.1502 7.49476 39.5642 7.64068C39.9782 7.7866 40.3498 8.01566 40.679 8.32787C41.0082 8.64007 41.2678 9.04559 41.4578 9.54443C41.6478 10.0399 41.7429 10.6422 41.7429 11.3515V11.891H35.5277V10.7508H40.2514C40.2514 10.3504 40.17 9.99577 40.0071 9.68696C39.8442 9.37476 39.6151 9.12873 39.3199 8.94888C39.0281 8.76902 38.6853 8.67909 38.2917 8.67909C37.8641 8.67909 37.4908 8.78429 37.1718 8.99469C36.8562 9.20169 36.6119 9.47317 36.4388 9.80913C36.2691 10.1417 36.1843 10.5031 36.1843 10.8933V11.7841C36.1843 12.3067 36.2759 12.7513 36.4592 13.1178C36.6458 13.4843 36.9054 13.7642 37.238 13.9577C37.5706 14.1477 37.9591 14.2427 38.4037 14.2427C38.6921 14.2427 38.9551 14.202 39.1926 14.1206C39.4302 14.0357 39.6355 13.9102 39.8086 13.7439C39.9816 13.5776 40.114 13.3723 40.2056 13.128L41.6461 13.3876C41.5308 13.8118 41.3238 14.1833 41.0251 14.5023C40.7299 14.8179 40.3583 15.064 39.9104 15.2404C39.4658 15.4135 38.9585 15.5 38.3884 15.5Z" fill="#06090B"/>
<path d="M46.3584 15.4949C45.7272 15.4949 45.1639 15.3337 44.6685 15.0114C44.1764 14.6856 43.7896 14.2224 43.5079 13.6217C43.2296 13.0177 43.0905 12.2932 43.0905 11.4482C43.0905 10.6032 43.2313 9.88039 43.513 9.27974C43.798 8.67909 44.1883 8.21927 44.6837 7.90028C45.1792 7.5813 45.7408 7.4218 46.3686 7.4218C46.8539 7.4218 47.2441 7.50325 47.5394 7.66613C47.838 7.82563 48.0688 8.01227 48.2316 8.22606C48.3979 8.43985 48.5269 8.62819 48.6185 8.79108H48.7101V4.9174H50.2321V15.3422H48.7458V14.1257H48.6185C48.5269 14.2919 48.3945 14.482 48.2215 14.6958C48.0518 14.9096 47.8176 15.0962 47.519 15.2557C47.2204 15.4152 46.8335 15.4949 46.3584 15.4949ZM46.6944 14.1969C47.1322 14.1969 47.502 14.0815 47.8041 13.8508C48.1095 13.6166 48.3402 13.2926 48.4963 12.8785C48.6558 12.4645 48.7356 11.9827 48.7356 11.4329C48.7356 10.89 48.6575 10.4149 48.5014 10.0076C48.3453 9.60043 48.1163 9.28313 47.8142 9.05577C47.5122 8.82841 47.1389 8.71472 46.6944 8.71472C46.2363 8.71472 45.8545 8.8335 45.5491 9.07104C45.2437 9.30859 45.0129 9.63267 44.8568 10.0433C44.7041 10.4539 44.6278 10.9171 44.6278 11.4329C44.6278 11.9555 44.7058 12.4255 44.8619 12.8429C45.018 13.2603 45.2488 13.5912 45.5542 13.8355C45.863 14.0764 46.2431 14.1969 46.6944 14.1969Z" fill="#06090B"/>
<path d="M52.5265 15.3422V4.9174H56.3442C57.084 4.9174 57.6965 5.03957 58.1818 5.2839C58.6671 5.52484 59.0302 5.85231 59.2711 6.26632C59.5121 6.67693 59.6325 7.14014 59.6325 7.65595C59.6325 8.09032 59.5528 8.45682 59.3933 8.75545C59.2338 9.05068 59.02 9.28822 58.7519 9.46808C58.4872 9.64454 58.1954 9.77349 57.8764 9.85494V9.95674C58.2225 9.97371 58.5602 10.0857 58.8893 10.2927C59.2219 10.4963 59.4968 10.7865 59.714 11.1631C59.9312 11.5398 60.0397 11.9979 60.0397 12.5375C60.0397 13.0703 59.9142 13.5488 59.6631 13.9729C59.4153 14.3937 59.0319 14.728 58.5127 14.9757C57.9935 15.2201 57.33 15.3422 56.5224 15.3422H52.5265ZM54.0994 13.9933H56.3697C57.123 13.9933 57.6626 13.8474 57.9884 13.5555C58.3142 13.2637 58.477 12.8989 58.477 12.4611C58.477 12.132 58.3939 11.83 58.2276 11.5551C58.0613 11.2802 57.8238 11.0613 57.515 10.8984C57.2096 10.7356 56.8465 10.6541 56.4257 10.6541H54.0994V13.9933ZM54.0994 9.42736H56.2068C56.5597 9.42736 56.877 9.35949 57.1587 9.22375C57.4437 9.08801 57.6694 8.89797 57.8357 8.65364C58.0053 8.40592 58.0902 8.11407 58.0902 7.77812C58.0902 7.34714 57.9392 6.98574 57.6371 6.6939C57.3351 6.40206 56.8719 6.25613 56.2475 6.25613H54.0994V9.42736Z" fill="#06090B"/>
<path d="M61.7832 15.3422V7.52361H63.2542V8.76563H63.3357C63.4782 8.34483 63.7293 8.01397 64.089 7.77303C64.4521 7.5287 64.8628 7.40653 65.3209 7.40653C65.4159 7.40653 65.5279 7.40992 65.6568 7.41671C65.7892 7.4235 65.8927 7.43198 65.9673 7.44216V8.89797C65.9063 8.881 65.7977 8.86234 65.6416 8.84198C65.4855 8.81822 65.3294 8.80635 65.1733 8.80635C64.8135 8.80635 64.4929 8.8827 64.2112 9.03541C63.9329 9.18472 63.7124 9.39342 63.5495 9.66151C63.3866 9.9262 63.3051 10.2282 63.3051 10.5676V15.3422H61.7832Z" fill="#06090B"/>
<path d="M67.2844 15.3422V7.52361H68.8064V15.3422H67.2844ZM68.0531 6.31722C67.7884 6.31722 67.561 6.22899 67.371 6.05252C67.1843 5.87267 67.091 5.65888 67.091 5.41115C67.091 5.16004 67.1843 4.94624 67.371 4.76978C67.561 4.58993 67.7884 4.5 68.0531 4.5C68.3178 4.5 68.5434 4.58993 68.7301 4.76978C68.9201 4.94624 69.0151 5.16004 69.0151 5.41115C69.0151 5.65888 68.9201 5.87267 68.7301 6.05252C68.5434 6.22899 68.3178 6.31722 68.0531 6.31722Z" fill="#06090B"/>
<path d="M74.1474 15.5C73.3906 15.5 72.7391 15.3286 72.1927 14.9859C71.6497 14.6398 71.2323 14.163 70.9405 13.5555C70.6487 12.9481 70.5027 12.2524 70.5027 11.4685C70.5027 10.6745 70.6521 9.97371 70.9507 9.36628C71.2493 8.75545 71.6701 8.27866 72.2131 7.93592C72.756 7.59317 73.3957 7.4218 74.1321 7.4218C74.726 7.4218 75.2553 7.53209 75.7202 7.75267C76.1852 7.96985 76.5601 8.27527 76.8452 8.66891C77.1336 9.06256 77.305 9.52238 77.3593 10.0484H75.878C75.7966 9.68187 75.61 9.36627 75.3181 9.10158C75.0297 8.83689 74.6428 8.70454 74.1575 8.70454C73.7334 8.70454 73.3618 8.81653 73.0428 9.0405C72.7272 9.26108 72.4812 9.57667 72.3047 9.98729C72.1282 10.3945 72.04 10.8764 72.04 11.4329C72.04 12.003 72.1265 12.4951 72.2996 12.9091C72.4727 13.3231 72.717 13.6438 73.0326 13.8711C73.3516 14.0985 73.7266 14.2122 74.1575 14.2122C74.446 14.2122 74.7073 14.1596 74.9414 14.0544C75.179 13.9458 75.3775 13.7914 75.537 13.5912C75.6999 13.391 75.8136 13.15 75.878 12.8684H77.3593C77.305 13.374 77.1404 13.8253 76.8656 14.2224C76.5907 14.6194 76.2225 14.9316 75.761 15.159C75.3028 15.3863 74.765 15.5 74.1474 15.5Z" fill="#06090B"/>
<path d="M80.3867 12.6902L80.3765 10.8323H80.6412L83.7565 7.52361H85.5788L82.0258 11.2904H81.7865L80.3867 12.6902ZM78.9869 15.3422V4.9174H80.5089V15.3422H78.9869ZM83.9244 15.3422L81.1248 11.6263L82.1734 10.5625L85.7926 15.3422H83.9244Z" fill="#06090B"/>
<path d="M91.7622 15.3422H90.0926L93.8441 4.9174H95.6613L99.4128 15.3422H97.7432L94.7959 6.81097H94.7145L91.7622 15.3422ZM92.0421 11.2598H97.4581V12.5833H92.0421V11.2598Z" fill="#06090B"/>
<path d="M102.491 4.9174V15.3422H100.918V4.9174H102.491Z" fill="#06090B"/>
</svg>
