<?xml version="1.0" encoding="UTF-8"?>
<svg xmlns="http://www.w3.org/2000/svg" xmlns:xlink="http://www.w3.org/1999/xlink" width="208px" height="40px" viewBox="0 0 206 40" version="1.1">
<g id="surface1">
<path style=" stroke:none;fill-rule:nonzero;fill:rgb(88.627451%,89.411765%,90.980392%);fill-opacity:1;" d="M 13.503906 10 L 8.023438 6.835938 L 2.542969 10 L 8.023438 13.164062 Z M 13.503906 10 "/>
<path style=" stroke:none;fill-rule:nonzero;fill:rgb(85.098039%,18.039216%,7.45098%);fill-opacity:1;" d="M 2.542969 16.328125 L 8.023438 19.492188 L 8.023438 13.164062 L 2.542969 10 Z M 2.542969 16.328125 "/>
<path style=" stroke:none;fill-rule:nonzero;fill:rgb(40.784314%,12.156863%,7.45098%);fill-opacity:1;" d="M 13.503906 16.328125 L 13.503906 10 L 8.023438 13.164062 L 8.023438 19.492188 Z M 13.503906 16.328125 "/>
<path style=" stroke:none;fill-rule:nonzero;fill:rgb(88.627451%,89.411765%,90.980392%);fill-opacity:1;" d="M 13.503906 23.671875 L 8.023438 20.503906 L 2.542969 23.671875 L 8.023438 26.835938 Z M 13.503906 23.671875 "/>
<path style=" stroke:none;fill-rule:nonzero;fill:rgb(85.098039%,18.039216%,7.45098%);fill-opacity:1;" d="M 2.542969 30 L 8.023438 33.164062 L 8.023438 26.835938 L 2.542969 23.671875 Z M 2.542969 30 "/>
<path style=" stroke:none;fill-rule:nonzero;fill:rgb(40.784314%,12.156863%,7.45098%);fill-opacity:1;" d="M 13.503906 30 L 13.503906 23.671875 L 8.023438 26.835938 L 8.023438 33.164062 Z M 13.503906 30 "/>
<path style=" stroke:none;fill-rule:nonzero;fill:rgb(88.627451%,89.411765%,90.980392%);fill-opacity:1;" d="M 25.480469 3.164062 L 20 0 L 14.519531 3.164062 L 20 6.328125 Z M 25.480469 3.164062 "/>
<path style=" stroke:none;fill-rule:nonzero;fill:rgb(85.098039%,18.039216%,7.45098%);fill-opacity:1;" d="M 14.519531 9.496094 L 20 12.660156 L 20 6.328125 L 14.519531 3.164062 Z M 14.519531 9.496094 "/>
<path style=" stroke:none;fill-rule:nonzero;fill:rgb(40.784314%,12.156863%,7.45098%);fill-opacity:1;" d="M 25.480469 9.496094 L 25.480469 3.164062 L 19.996094 6.328125 L 19.996094 12.660156 Z M 25.480469 9.496094 "/>
<path style=" stroke:none;fill-rule:nonzero;fill:rgb(88.627451%,89.411765%,90.980392%);fill-opacity:1;" d="M 25.480469 16.835938 L 20 13.671875 L 14.519531 16.835938 L 20 20 Z M 25.480469 16.835938 "/>
<path style=" stroke:none;fill-rule:nonzero;fill:rgb(85.098039%,18.039216%,7.45098%);fill-opacity:1;" d="M 14.519531 23.164062 L 20 26.328125 L 20 20 L 14.519531 16.835938 Z M 14.519531 23.164062 "/>
<path style=" stroke:none;fill-rule:nonzero;fill:rgb(40.784314%,12.156863%,7.45098%);fill-opacity:1;" d="M 25.480469 23.164062 L 25.480469 16.835938 L 19.996094 20 L 19.996094 26.328125 Z M 25.480469 23.164062 "/>
<path style=" stroke:none;fill-rule:nonzero;fill:rgb(88.627451%,89.411765%,90.980392%);fill-opacity:1;" d="M 25.480469 30.507812 L 20 27.34375 L 14.519531 30.507812 L 20 33.671875 Z M 25.480469 30.507812 "/>
<path style=" stroke:none;fill-rule:nonzero;fill:rgb(85.098039%,18.039216%,7.45098%);fill-opacity:1;" d="M 14.519531 36.835938 L 20 40 L 20 33.671875 L 14.519531 30.503906 Z M 14.519531 36.835938 "/>
<path style=" stroke:none;fill-rule:nonzero;fill:rgb(40.784314%,12.156863%,7.45098%);fill-opacity:1;" d="M 25.480469 36.835938 L 25.480469 30.503906 L 19.996094 33.671875 L 19.996094 40 Z M 25.480469 36.835938 "/>
<path style=" stroke:none;fill-rule:nonzero;fill:rgb(88.627451%,89.411765%,90.980392%);fill-opacity:1;" d="M 37.453125 10 L 31.972656 6.835938 L 26.492188 10 L 31.972656 13.164062 Z M 37.453125 10 "/>
<path style=" stroke:none;fill-rule:nonzero;fill:rgb(85.098039%,18.039216%,7.45098%);fill-opacity:1;" d="M 26.492188 16.328125 L 31.972656 19.492188 L 31.972656 13.164062 L 26.492188 10 Z M 26.492188 16.328125 "/>
<path style=" stroke:none;fill-rule:nonzero;fill:rgb(40.784314%,12.156863%,7.45098%);fill-opacity:1;" d="M 37.453125 16.328125 L 37.453125 10 L 31.972656 13.164062 L 31.972656 19.492188 Z M 37.453125 16.328125 "/>
<path style=" stroke:none;fill-rule:nonzero;fill:rgb(88.627451%,89.411765%,90.980392%);fill-opacity:1;" d="M 37.453125 23.667969 L 31.972656 20.503906 L 26.492188 23.667969 L 31.972656 26.835938 Z M 37.453125 23.667969 "/>
<path style=" stroke:none;fill-rule:nonzero;fill:rgb(85.098039%,18.039216%,7.45098%);fill-opacity:1;" d="M 26.492188 30 L 31.972656 33.164062 L 31.972656 26.835938 L 26.492188 23.671875 Z M 26.492188 30 "/>
<path style=" stroke:none;fill-rule:nonzero;fill:rgb(40.784314%,12.156863%,7.45098%);fill-opacity:1;" d="M 37.453125 30 L 37.453125 23.671875 L 31.972656 26.835938 L 31.972656 33.164062 Z M 37.453125 30 "/>
<path style=" stroke:none;fill-rule:nonzero;fill:rgb(2.352941%,3.529412%,4.313725%);fill-opacity:1;" d="M 52 30.683594 L 52 9.835938 L 59.433594 9.835938 C 61.046875 9.835938 62.386719 10.113281 63.453125 10.667969 C 64.527344 11.226562 65.328125 11.996094 65.855469 12.980469 C 66.386719 13.957031 66.648438 15.089844 66.648438 16.371094 C 66.648438 17.648438 66.382812 18.769531 65.84375 19.742188 C 65.316406 20.703125 64.515625 21.453125 63.441406 21.992188 C 62.378906 22.527344 61.035156 22.792969 59.421875 22.792969 L 53.792969 22.792969 L 53.792969 20.085938 L 59.136719 20.085938 C 60.15625 20.085938 60.984375 19.941406 61.621094 19.648438 C 62.265625 19.355469 62.738281 18.933594 63.035156 18.375 C 63.335938 17.820312 63.484375 17.152344 63.484375 16.371094 C 63.484375 15.582031 63.332031 14.902344 63.027344 14.324219 C 62.726562 13.746094 62.253906 13.304688 61.609375 13 C 60.972656 12.6875 60.132812 12.53125 59.097656 12.53125 L 55.144531 12.53125 L 55.144531 30.683594 Z M 62.292969 21.277344 L 67.445312 30.683594 L 63.859375 30.683594 L 58.8125 21.277344 Z M 62.292969 21.277344 "/>
<path style=" stroke:none;fill-rule:nonzero;fill:rgb(2.352941%,3.529412%,4.313725%);fill-opacity:1;" d="M 76.777344 31 C 75.234375 31 73.910156 30.671875 72.796875 30.011719 C 71.691406 29.347656 70.835938 28.414062 70.230469 27.214844 C 69.632812 26.003906 69.335938 24.589844 69.335938 22.96875 C 69.335938 21.367188 69.632812 19.953125 70.230469 18.734375 C 70.835938 17.511719 71.675781 16.558594 72.753906 15.871094 C 73.839844 15.1875 75.109375 14.84375 76.5625 14.84375 C 77.445312 14.84375 78.300781 14.988281 79.128906 15.28125 C 79.957031 15.574219 80.699219 16.03125 81.359375 16.65625 C 82.015625 17.28125 82.535156 18.089844 82.914062 19.089844 C 83.296875 20.078125 83.484375 21.285156 83.484375 22.703125 L 83.484375 23.78125 L 71.054688 23.78125 L 71.054688 21.5 L 80.503906 21.5 C 80.503906 20.699219 80.339844 19.992188 80.015625 19.375 C 79.6875 18.75 79.230469 18.257812 78.640625 17.898438 C 78.054688 17.539062 77.371094 17.359375 76.582031 17.359375 C 75.726562 17.359375 74.980469 17.570312 74.34375 17.988281 C 73.710938 18.402344 73.222656 18.945312 72.878906 19.617188 C 72.539062 20.285156 72.367188 21.007812 72.367188 21.785156 L 72.367188 23.566406 C 72.367188 24.613281 72.550781 25.503906 72.917969 26.234375 C 73.292969 26.96875 73.8125 27.527344 74.476562 27.914062 C 75.140625 28.296875 75.917969 28.484375 76.808594 28.484375 C 77.382812 28.484375 77.910156 28.402344 78.386719 28.242188 C 78.859375 28.070312 79.269531 27.820312 79.617188 27.488281 C 79.964844 27.15625 80.226562 26.746094 80.410156 26.257812 L 83.292969 26.773438 C 83.0625 27.625 82.648438 28.367188 82.050781 29.003906 C 81.460938 29.636719 80.714844 30.128906 79.820312 30.480469 C 78.929688 30.828125 77.917969 31 76.777344 31 Z M 76.777344 31 "/>
<path style=" stroke:none;fill-rule:nonzero;fill:rgb(2.352941%,3.529412%,4.313725%);fill-opacity:1;" d="M 92.71875 30.988281 C 91.453125 30.988281 90.328125 30.667969 89.335938 30.023438 C 88.351562 29.371094 87.578125 28.445312 87.015625 27.242188 C 86.460938 26.035156 86.179688 24.585938 86.179688 22.894531 C 86.179688 21.207031 86.460938 19.761719 87.027344 18.558594 C 87.597656 17.359375 88.375 16.4375 89.367188 15.800781 C 90.359375 15.164062 91.480469 14.84375 92.738281 14.84375 C 93.707031 14.84375 94.488281 15.007812 95.078125 15.332031 C 95.675781 15.652344 96.136719 16.023438 96.464844 16.453125 C 96.796875 16.878906 97.054688 17.257812 97.238281 17.582031 L 97.421875 17.582031 L 97.421875 9.835938 L 100.464844 9.835938 L 100.464844 30.683594 L 97.492188 30.683594 L 97.492188 28.25 L 97.238281 28.25 C 97.054688 28.582031 96.789062 28.964844 96.441406 29.390625 C 96.105469 29.820312 95.636719 30.191406 95.039062 30.511719 C 94.441406 30.832031 93.667969 30.988281 92.71875 30.988281 Z M 93.390625 28.394531 C 94.265625 28.394531 95.003906 28.164062 95.609375 27.703125 C 96.21875 27.234375 96.679688 26.585938 96.992188 25.757812 C 97.3125 24.929688 97.472656 23.964844 97.472656 22.867188 C 97.472656 21.78125 97.316406 20.828125 97.003906 20.015625 C 96.691406 19.199219 96.234375 18.566406 95.628906 18.113281 C 95.023438 17.65625 94.277344 17.429688 93.390625 17.429688 C 92.472656 17.429688 91.710938 17.667969 91.097656 18.140625 C 90.488281 18.617188 90.027344 19.265625 89.714844 20.085938 C 89.40625 20.90625 89.253906 21.835938 89.253906 22.867188 C 89.253906 23.910156 89.410156 24.851562 89.722656 25.6875 C 90.035156 26.519531 90.496094 27.183594 91.109375 27.671875 C 91.726562 28.152344 92.484375 28.394531 93.390625 28.394531 Z M 93.390625 28.394531 "/>
<path style=" stroke:none;fill-rule:nonzero;fill:rgb(2.352941%,3.529412%,4.313725%);fill-opacity:1;" d="M 105.054688 30.683594 L 105.054688 9.835938 L 112.6875 9.835938 C 114.167969 9.835938 115.394531 10.078125 116.363281 10.566406 C 117.335938 11.050781 118.058594 11.703125 118.542969 12.53125 C 119.023438 13.355469 119.265625 14.28125 119.265625 15.3125 C 119.265625 16.179688 119.105469 16.914062 118.785156 17.511719 C 118.46875 18.101562 118.039062 18.578125 117.503906 18.9375 C 116.972656 19.289062 116.390625 19.546875 115.753906 19.710938 L 115.753906 19.914062 C 116.445312 19.949219 117.121094 20.171875 117.777344 20.585938 C 118.445312 20.992188 118.992188 21.574219 119.429688 22.328125 C 119.863281 23.078125 120.078125 23.996094 120.078125 25.074219 C 120.078125 26.140625 119.828125 27.097656 119.328125 27.945312 C 118.832031 28.789062 118.0625 29.457031 117.027344 29.953125 C 115.988281 30.441406 114.660156 30.683594 113.042969 30.683594 Z M 108.199219 27.988281 L 112.738281 27.988281 C 114.246094 27.988281 115.324219 27.695312 115.976562 27.109375 C 116.628906 26.527344 116.953125 25.796875 116.953125 24.921875 C 116.953125 24.265625 116.789062 23.660156 116.457031 23.109375 C 116.121094 22.558594 115.648438 22.121094 115.03125 21.796875 C 114.417969 21.472656 113.691406 21.308594 112.851562 21.308594 L 108.199219 21.308594 Z M 108.199219 18.855469 L 112.414062 18.855469 C 113.121094 18.855469 113.753906 18.71875 114.316406 18.449219 C 114.886719 18.175781 115.339844 17.796875 115.671875 17.308594 C 116.011719 16.8125 116.179688 16.226562 116.179688 15.554688 C 116.179688 14.695312 115.878906 13.972656 115.273438 13.386719 C 114.671875 12.804688 113.742188 12.511719 112.496094 12.511719 L 108.199219 12.511719 Z M 108.199219 18.855469 "/>
<path style=" stroke:none;fill-rule:nonzero;fill:rgb(2.352941%,3.529412%,4.313725%);fill-opacity:1;" d="M 123.566406 30.683594 L 123.566406 15.046875 L 126.507812 15.046875 L 126.507812 17.53125 L 126.671875 17.53125 C 126.957031 16.691406 127.457031 16.027344 128.179688 15.546875 C 128.902344 15.058594 129.726562 14.8125 130.640625 14.8125 C 130.832031 14.8125 131.054688 14.820312 131.3125 14.832031 C 131.578125 14.847656 131.785156 14.863281 131.933594 14.882812 L 131.933594 17.796875 C 131.8125 17.761719 131.59375 17.726562 131.28125 17.683594 C 130.972656 17.636719 130.660156 17.613281 130.347656 17.613281 C 129.628906 17.613281 128.984375 17.765625 128.421875 18.070312 C 127.867188 18.371094 127.425781 18.785156 127.097656 19.324219 C 126.773438 19.851562 126.609375 20.457031 126.609375 21.136719 L 126.609375 30.683594 Z M 123.566406 30.683594 "/>
<path style=" stroke:none;fill-rule:nonzero;fill:rgb(2.352941%,3.529412%,4.313725%);fill-opacity:1;" d="M 134.570312 30.683594 L 134.570312 15.046875 L 137.613281 15.046875 L 137.613281 30.683594 Z M 136.105469 12.632812 C 135.578125 12.632812 135.121094 12.457031 134.742188 12.105469 C 134.367188 11.746094 134.183594 11.316406 134.183594 10.824219 C 134.183594 10.320312 134.367188 9.890625 134.742188 9.539062 C 135.121094 9.179688 135.578125 9 136.105469 9 C 136.636719 9 137.085938 9.179688 137.460938 9.539062 C 137.839844 9.890625 138.03125 10.320312 138.03125 10.824219 C 138.03125 11.316406 137.839844 11.746094 137.460938 12.105469 C 137.085938 12.457031 136.636719 12.632812 136.105469 12.632812 Z M 136.105469 12.632812 "/>
<path style=" stroke:none;fill-rule:nonzero;fill:rgb(2.352941%,3.529412%,4.313725%);fill-opacity:1;" d="M 148.292969 31 C 146.78125 31 145.476562 30.65625 144.386719 29.972656 C 143.300781 29.28125 142.464844 28.324219 141.882812 27.109375 C 141.296875 25.894531 141.003906 24.503906 141.003906 22.9375 C 141.003906 21.347656 141.304688 19.949219 141.902344 18.734375 C 142.5 17.511719 143.339844 16.558594 144.425781 15.871094 C 145.511719 15.1875 146.792969 14.84375 148.265625 14.84375 C 149.453125 14.84375 150.511719 15.0625 151.441406 15.503906 C 152.371094 15.941406 153.121094 16.550781 153.691406 17.335938 C 154.265625 18.125 154.609375 19.042969 154.71875 20.097656 L 151.757812 20.097656 C 151.59375 19.363281 151.21875 18.734375 150.636719 18.203125 C 150.058594 17.671875 149.285156 17.410156 148.316406 17.410156 C 147.46875 17.410156 146.722656 17.632812 146.085938 18.082031 C 145.453125 18.523438 144.960938 19.152344 144.609375 19.972656 C 144.257812 20.789062 144.078125 21.753906 144.078125 22.867188 C 144.078125 24.007812 144.253906 24.988281 144.597656 25.816406 C 144.945312 26.644531 145.433594 27.289062 146.066406 27.742188 C 146.703125 28.195312 147.453125 28.425781 148.316406 28.425781 C 148.890625 28.425781 149.414062 28.320312 149.882812 28.109375 C 150.359375 27.890625 150.753906 27.582031 151.074219 27.183594 C 151.398438 26.78125 151.628906 26.300781 151.757812 25.738281 L 154.71875 25.738281 C 154.609375 26.746094 154.28125 27.652344 153.730469 28.445312 C 153.179688 29.238281 152.445312 29.863281 151.523438 30.316406 C 150.605469 30.773438 149.53125 31 148.292969 31 Z M 148.292969 31 "/>
<path style=" stroke:none;fill-rule:nonzero;fill:rgb(2.352941%,3.529412%,4.313725%);fill-opacity:1;" d="M 160.773438 25.378906 L 160.753906 21.664062 L 161.28125 21.664062 L 167.511719 15.046875 L 171.15625 15.046875 L 164.050781 22.582031 L 163.574219 22.582031 Z M 157.972656 30.683594 L 157.972656 9.835938 L 161.019531 9.835938 L 161.019531 30.683594 Z M 167.847656 30.683594 L 162.25 23.253906 L 164.347656 21.125 L 171.585938 30.683594 Z M 167.847656 30.683594 "/>
<path style=" stroke:none;fill-rule:nonzero;fill:rgb(2.352941%,3.529412%,4.313725%);fill-opacity:1;" d="M 183.523438 30.683594 L 180.183594 30.683594 L 187.6875 9.835938 L 191.324219 9.835938 L 198.824219 30.683594 L 195.488281 30.683594 L 189.59375 13.621094 L 189.429688 13.621094 Z M 184.085938 22.519531 L 194.917969 22.519531 L 194.917969 25.167969 L 184.085938 25.167969 Z M 184.085938 22.519531 "/>
<path style=" stroke:none;fill-rule:nonzero;fill:rgb(2.352941%,3.529412%,4.313725%);fill-opacity:1;" d="M 204.980469 9.835938 L 204.980469 30.683594 L 201.835938 30.683594 L 201.835938 9.835938 Z M 204.980469 9.835938 "/>
</g>
</svg>
