<svg width="105" height="20" viewBox="0 0 105 20" fill="none" xmlns="http://www.w3.org/2000/svg">
<path d="M6.75302 5L4.01244 3.41772L1.27185 5L4.01244 6.58228L6.75302 5Z" fill="#86909E" fill-opacity="0.24"/>
<path d="M1.27185 8.16471L4.01244 9.74699V6.58243L1.27185 5.00015V8.16471Z" fill="#D92D20"/>
<path d="M6.75304 8.16468V5.00012L4.01245 6.5824V9.74696L6.75304 8.16468Z" fill="#681F13"/>
<path d="M6.75302 11.8356L4.01244 10.2533L1.27185 11.8356L4.01244 13.4179L6.75302 11.8356Z" fill="#86909E" fill-opacity="0.24"/>
<path d="M1.27185 15.0001L4.01244 16.5824V13.4178L1.27185 11.8355V15.0001Z" fill="#D92D20"/>
<path d="M6.75304 15.0001V11.8355L4.01245 13.4178V16.5824L6.75304 15.0001Z" fill="#681F13"/>
<path d="M12.7406 1.5824L9.99999 0.00012207L7.2594 1.5824L9.99999 3.16468L12.7406 1.5824Z" fill="#86909E" fill-opacity="0.24"/>
<path d="M7.2594 4.74711L9.99999 6.32939V3.16483L7.2594 1.58255V4.74711Z" fill="#D92D20"/>
<path d="M12.7406 4.74708V1.58252L10 3.1648V6.32936L12.7406 4.74708Z" fill="#681F13"/>
<path d="M12.7406 8.418L9.99999 6.83572L7.2594 8.418L9.99999 10.0003L12.7406 8.418Z" fill="#86909E" fill-opacity="0.24"/>
<path d="M7.2594 11.5825L9.99999 13.1647V10.0002L7.2594 8.41791V11.5825Z" fill="#D92D20"/>
<path d="M12.7406 11.5824V8.41788L10 10.0002V13.1647L12.7406 11.5824Z" fill="#681F13"/>
<path d="M12.7406 15.2534L9.99999 13.6711L7.2594 15.2534L9.99999 16.8357L12.7406 15.2534Z" fill="#86909E" fill-opacity="0.24"/>
<path d="M7.2594 18.4177L9.99999 19.9999V16.8354L7.2594 15.2531V18.4177Z" fill="#D92D20"/>
<path d="M12.7406 18.4176V15.2531L10 16.8354V19.9999L12.7406 18.4176Z" fill="#681F13"/>
<path d="M18.7281 5.00006L15.9875 3.41779L13.2469 5.00006L15.9875 6.58234L18.7281 5.00006Z" fill="#86909E" fill-opacity="0.24"/>
<path d="M13.2469 8.16456L15.9875 9.74684V6.58228L13.2469 5V8.16456Z" fill="#D92D20"/>
<path d="M18.7281 8.16456V5L15.9875 6.58228V9.74684L18.7281 8.16456Z" fill="#681F13"/>
<path d="M18.7281 11.8354L15.9875 10.2531L13.2469 11.8354L15.9875 13.4177L18.7281 11.8354Z" fill="#86909E" fill-opacity="0.24"/>
<path d="M13.2469 14.9999L15.9875 16.5822V13.4176L13.2469 11.8354V14.9999Z" fill="#D92D20"/>
<path d="M18.7281 14.9999V11.8354L15.9875 13.4176V16.5822L18.7281 14.9999Z" fill="#681F13"/>
<path d="M28 15.3422V4.9174H31.7159C32.5235 4.9174 33.1937 5.05653 33.7265 5.3348C34.2627 5.61307 34.6631 5.99823 34.9278 6.49029C35.1925 6.97895 35.3249 7.54397 35.3249 8.18534C35.3249 8.82332 35.1908 9.38494 34.9227 9.87021C34.658 10.3521 34.2576 10.7271 33.7214 10.9952C33.1887 11.2632 32.5184 11.3973 31.7108 11.3973H28.8959V10.0433H31.5683C32.0773 10.0433 32.4913 9.97032 32.8103 9.8244C33.1327 9.67848 33.3685 9.46638 33.5178 9.18812C33.6671 8.90985 33.7418 8.57559 33.7418 8.18534C33.7418 7.79169 33.6654 7.45065 33.5127 7.1622C33.3634 6.87375 33.1276 6.65317 32.8052 6.50047C32.4862 6.34437 32.0671 6.26632 31.5479 6.26632H29.5729V15.3422H28ZM33.1462 10.6388L35.7219 15.3422H33.9301L31.4054 10.6388H33.1462Z" fill="white"/>
<path d="M40.3884 15.5C39.6181 15.5 38.9546 15.3354 38.3981 15.0063C37.845 14.6737 37.4174 14.2071 37.1154 13.6064C36.8167 13.0024 36.6674 12.2949 36.6674 11.4838C36.6674 10.683 36.8167 9.9771 37.1154 9.36628C37.4174 8.75545 37.8382 8.27866 38.3777 7.93592C38.9207 7.59317 39.5553 7.4218 40.2815 7.4218C40.7226 7.4218 41.1502 7.49476 41.5642 7.64068C41.9782 7.7866 42.3498 8.01566 42.679 8.32787C43.0082 8.64007 43.2678 9.04559 43.4578 9.54443C43.6478 10.0399 43.7429 10.6422 43.7429 11.3515V11.891H37.5277V10.7508H42.2514C42.2514 10.3504 42.17 9.99577 42.0071 9.68696C41.8442 9.37476 41.6151 9.12873 41.3199 8.94888C41.0281 8.76902 40.6853 8.67909 40.2917 8.67909C39.8641 8.67909 39.4908 8.78429 39.1718 8.99469C38.8562 9.20169 38.6119 9.47317 38.4388 9.80913C38.2691 10.1417 38.1843 10.5031 38.1843 10.8933V11.7841C38.1843 12.3067 38.2759 12.7513 38.4592 13.1178C38.6458 13.4843 38.9054 13.7642 39.238 13.9577C39.5706 14.1477 39.9591 14.2427 40.4037 14.2427C40.6921 14.2427 40.9551 14.202 41.1926 14.1206C41.4302 14.0357 41.6355 13.9102 41.8086 13.7439C41.9816 13.5776 42.114 13.3723 42.2056 13.128L43.6461 13.3876C43.5308 13.8118 43.3238 14.1833 43.0251 14.5023C42.7299 14.8179 42.3583 15.064 41.9104 15.2404C41.4658 15.4135 40.9585 15.5 40.3884 15.5Z" fill="white"/>
<path d="M48.3584 15.4949C47.7272 15.4949 47.1639 15.3337 46.6685 15.0114C46.1764 14.6856 45.7896 14.2224 45.5079 13.6217C45.2296 13.0177 45.0905 12.2932 45.0905 11.4482C45.0905 10.6032 45.2313 9.88039 45.513 9.27974C45.798 8.67909 46.1883 8.21927 46.6837 7.90028C47.1792 7.5813 47.7408 7.4218 48.3686 7.4218C48.8539 7.4218 49.2441 7.50325 49.5394 7.66613C49.838 7.82563 50.0688 8.01227 50.2316 8.22606C50.3979 8.43985 50.5269 8.62819 50.6185 8.79108H50.7101V4.9174H52.2321V15.3422H50.7458V14.1257H50.6185C50.5269 14.2919 50.3945 14.482 50.2215 14.6958C50.0518 14.9096 49.8176 15.0962 49.519 15.2557C49.2204 15.4152 48.8335 15.4949 48.3584 15.4949ZM48.6944 14.1969C49.1322 14.1969 49.502 14.0815 49.8041 13.8508C50.1095 13.6166 50.3402 13.2926 50.4963 12.8785C50.6558 12.4645 50.7356 11.9827 50.7356 11.4329C50.7356 10.89 50.6575 10.4149 50.5014 10.0076C50.3453 9.60043 50.1163 9.28313 49.8142 9.05577C49.5122 8.82841 49.1389 8.71472 48.6944 8.71472C48.2363 8.71472 47.8545 8.8335 47.5491 9.07104C47.2437 9.30859 47.0129 9.63267 46.8568 10.0433C46.7041 10.4539 46.6278 10.9171 46.6278 11.4329C46.6278 11.9555 46.7058 12.4255 46.8619 12.8429C47.018 13.2603 47.2488 13.5912 47.5542 13.8355C47.863 14.0764 48.2431 14.1969 48.6944 14.1969Z" fill="white"/>
<path d="M54.5265 15.3422V4.9174H58.3442C59.084 4.9174 59.6965 5.03957 60.1818 5.2839C60.6671 5.52484 61.0302 5.85231 61.2711 6.26632C61.5121 6.67693 61.6325 7.14014 61.6325 7.65595C61.6325 8.09032 61.5528 8.45682 61.3933 8.75545C61.2338 9.05068 61.02 9.28822 60.7519 9.46808C60.4872 9.64454 60.1954 9.77349 59.8764 9.85494V9.95674C60.2225 9.97371 60.5602 10.0857 60.8893 10.2927C61.2219 10.4963 61.4968 10.7865 61.714 11.1631C61.9312 11.5398 62.0397 11.9979 62.0397 12.5375C62.0397 13.0703 61.9142 13.5488 61.6631 13.9729C61.4153 14.3937 61.0319 14.728 60.5127 14.9757C59.9935 15.2201 59.33 15.3422 58.5224 15.3422H54.5265ZM56.0994 13.9933H58.3697C59.123 13.9933 59.6626 13.8474 59.9884 13.5555C60.3142 13.2637 60.477 12.8989 60.477 12.4611C60.477 12.132 60.3939 11.83 60.2276 11.5551C60.0613 11.2802 59.8238 11.0613 59.515 10.8984C59.2096 10.7356 58.8465 10.6541 58.4257 10.6541H56.0994V13.9933ZM56.0994 9.42736H58.2068C58.5597 9.42736 58.877 9.35949 59.1587 9.22375C59.4437 9.08801 59.6694 8.89797 59.8357 8.65364C60.0053 8.40592 60.0902 8.11407 60.0902 7.77812C60.0902 7.34714 59.9392 6.98574 59.6371 6.6939C59.3351 6.40206 58.8719 6.25613 58.2475 6.25613H56.0994V9.42736Z" fill="white"/>
<path d="M63.7832 15.3422V7.52361H65.2542V8.76563H65.3357C65.4782 8.34483 65.7293 8.01397 66.089 7.77303C66.4521 7.5287 66.8628 7.40653 67.3209 7.40653C67.4159 7.40653 67.5279 7.40992 67.6568 7.41671C67.7892 7.4235 67.8927 7.43198 67.9673 7.44216V8.89797C67.9063 8.881 67.7977 8.86234 67.6416 8.84198C67.4855 8.81822 67.3294 8.80635 67.1733 8.80635C66.8135 8.80635 66.4929 8.8827 66.2112 9.03541C65.9329 9.18472 65.7124 9.39342 65.5495 9.66151C65.3866 9.9262 65.3051 10.2282 65.3051 10.5676V15.3422H63.7832Z" fill="white"/>
<path d="M69.2844 15.3422V7.52361H70.8064V15.3422H69.2844ZM70.0531 6.31722C69.7884 6.31722 69.561 6.22899 69.371 6.05252C69.1843 5.87267 69.091 5.65888 69.091 5.41115C69.091 5.16004 69.1843 4.94624 69.371 4.76978C69.561 4.58993 69.7884 4.5 70.0531 4.5C70.3178 4.5 70.5434 4.58993 70.7301 4.76978C70.9201 4.94624 71.0151 5.16004 71.0151 5.41115C71.0151 5.65888 70.9201 5.87267 70.7301 6.05252C70.5434 6.22899 70.3178 6.31722 70.0531 6.31722Z" fill="white"/>
<path d="M76.1474 15.5C75.3906 15.5 74.7391 15.3286 74.1927 14.9859C73.6497 14.6398 73.2323 14.163 72.9405 13.5555C72.6487 12.9481 72.5027 12.2524 72.5027 11.4685C72.5027 10.6745 72.6521 9.97371 72.9507 9.36628C73.2493 8.75545 73.6701 8.27866 74.2131 7.93592C74.756 7.59317 75.3957 7.4218 76.1321 7.4218C76.726 7.4218 77.2553 7.53209 77.7202 7.75267C78.1852 7.96985 78.5601 8.27527 78.8452 8.66891C79.1336 9.06256 79.305 9.52238 79.3593 10.0484H77.878C77.7966 9.68187 77.61 9.36627 77.3181 9.10158C77.0297 8.83689 76.6428 8.70454 76.1575 8.70454C75.7334 8.70454 75.3618 8.81653 75.0428 9.0405C74.7272 9.26108 74.4812 9.57667 74.3047 9.98729C74.1282 10.3945 74.04 10.8764 74.04 11.4329C74.04 12.003 74.1265 12.4951 74.2996 12.9091C74.4727 13.3231 74.717 13.6438 75.0326 13.8711C75.3516 14.0985 75.7266 14.2122 76.1575 14.2122C76.446 14.2122 76.7073 14.1596 76.9414 14.0544C77.179 13.9458 77.3775 13.7914 77.537 13.5912C77.6999 13.391 77.8136 13.15 77.878 12.8684H79.3593C79.305 13.374 79.1404 13.8253 78.8656 14.2224C78.5907 14.6194 78.2225 14.9316 77.761 15.159C77.3028 15.3863 76.765 15.5 76.1474 15.5Z" fill="white"/>
<path d="M82.3867 12.6902L82.3765 10.8323H82.6412L85.7565 7.52361H87.5788L84.0258 11.2904H83.7865L82.3867 12.6902ZM80.9869 15.3422V4.9174H82.5089V15.3422H80.9869ZM85.9245 15.3422L83.1248 11.6263L84.1734 10.5625L87.7926 15.3422H85.9245Z" fill="white"/>
<path d="M93.7622 15.3422H92.0926L95.8441 4.9174H97.6613L101.413 15.3422H99.7432L96.7959 6.81097H96.7145L93.7622 15.3422ZM94.0421 11.2598H99.4581V12.5833H94.0421V11.2598Z" fill="white"/>
<path d="M104.491 4.9174V15.3422H102.918V4.9174H104.491Z" fill="white"/>
</svg>
