<?xml version="1.0" encoding="UTF-8"?>
<svg xmlns="http://www.w3.org/2000/svg" xmlns:xlink="http://www.w3.org/1999/xlink" width="208px" height="40px" viewBox="0 0 210 40" version="1.1">
<g id="surface1">
<path style=" stroke:none;fill-rule:nonzero;fill:rgb(52.54902%,56.470588%,61.960784%);fill-opacity:0.239216;" d="M 13.507812 10 L 8.023438 6.835938 L 2.542969 10 L 8.023438 13.164062 Z M 13.507812 10 "/>
<path style=" stroke:none;fill-rule:nonzero;fill:rgb(85.098039%,17.647059%,12.54902%);fill-opacity:1;" d="M 2.542969 16.328125 L 8.023438 19.492188 L 8.023438 13.164062 L 2.542969 10 Z M 2.542969 16.328125 "/>
<path style=" stroke:none;fill-rule:nonzero;fill:rgb(40.784314%,12.156863%,7.45098%);fill-opacity:1;" d="M 13.507812 16.328125 L 13.507812 10 L 8.023438 13.164062 L 8.023438 19.492188 Z M 13.507812 16.328125 "/>
<path style=" stroke:none;fill-rule:nonzero;fill:rgb(52.54902%,56.470588%,61.960784%);fill-opacity:0.239216;" d="M 13.507812 23.671875 L 8.023438 20.507812 L 2.542969 23.671875 L 8.023438 26.835938 Z M 13.507812 23.671875 "/>
<path style=" stroke:none;fill-rule:nonzero;fill:rgb(85.098039%,17.647059%,12.54902%);fill-opacity:1;" d="M 2.542969 30 L 8.023438 33.164062 L 8.023438 26.835938 L 2.542969 23.671875 Z M 2.542969 30 "/>
<path style=" stroke:none;fill-rule:nonzero;fill:rgb(40.784314%,12.156863%,7.45098%);fill-opacity:1;" d="M 13.507812 30 L 13.507812 23.671875 L 8.023438 26.835938 L 8.023438 33.164062 Z M 13.507812 30 "/>
<path style=" stroke:none;fill-rule:nonzero;fill:rgb(52.54902%,56.470588%,61.960784%);fill-opacity:0.239216;" d="M 25.480469 3.164062 L 20 0 L 14.519531 3.164062 L 20 6.328125 Z M 25.480469 3.164062 "/>
<path style=" stroke:none;fill-rule:nonzero;fill:rgb(85.098039%,17.647059%,12.54902%);fill-opacity:1;" d="M 14.519531 9.496094 L 20 12.660156 L 20 6.328125 L 14.519531 3.164062 Z M 14.519531 9.496094 "/>
<path style=" stroke:none;fill-rule:nonzero;fill:rgb(40.784314%,12.156863%,7.45098%);fill-opacity:1;" d="M 25.480469 9.496094 L 25.480469 3.164062 L 20 6.328125 L 20 12.660156 Z M 25.480469 9.496094 "/>
<path style=" stroke:none;fill-rule:nonzero;fill:rgb(52.54902%,56.470588%,61.960784%);fill-opacity:0.239216;" d="M 25.480469 16.835938 L 20 13.671875 L 14.519531 16.835938 L 20 20 Z M 25.480469 16.835938 "/>
<path style=" stroke:none;fill-rule:nonzero;fill:rgb(85.098039%,17.647059%,12.54902%);fill-opacity:1;" d="M 14.519531 23.164062 L 20 26.328125 L 20 20 L 14.519531 16.835938 Z M 14.519531 23.164062 "/>
<path style=" stroke:none;fill-rule:nonzero;fill:rgb(40.784314%,12.156863%,7.45098%);fill-opacity:1;" d="M 25.480469 23.164062 L 25.480469 16.835938 L 20 20 L 20 26.328125 Z M 25.480469 23.164062 "/>
<path style=" stroke:none;fill-rule:nonzero;fill:rgb(52.54902%,56.470588%,61.960784%);fill-opacity:0.239216;" d="M 25.480469 30.507812 L 20 27.34375 L 14.519531 30.507812 L 20 33.671875 Z M 25.480469 30.507812 "/>
<path style=" stroke:none;fill-rule:nonzero;fill:rgb(85.098039%,17.647059%,12.54902%);fill-opacity:1;" d="M 14.519531 36.835938 L 20 40 L 20 33.671875 L 14.519531 30.507812 Z M 14.519531 36.835938 "/>
<path style=" stroke:none;fill-rule:nonzero;fill:rgb(40.784314%,12.156863%,7.45098%);fill-opacity:1;" d="M 25.480469 36.835938 L 25.480469 30.507812 L 20 33.671875 L 20 40 Z M 25.480469 36.835938 "/>
<path style=" stroke:none;fill-rule:nonzero;fill:rgb(52.54902%,56.470588%,61.960784%);fill-opacity:0.239216;" d="M 37.457031 10 L 31.976562 6.835938 L 26.492188 10 L 31.976562 13.164062 Z M 37.457031 10 "/>
<path style=" stroke:none;fill-rule:nonzero;fill:rgb(85.098039%,17.647059%,12.54902%);fill-opacity:1;" d="M 26.492188 16.328125 L 31.976562 19.492188 L 31.976562 13.164062 L 26.492188 10 Z M 26.492188 16.328125 "/>
<path style=" stroke:none;fill-rule:nonzero;fill:rgb(40.784314%,12.156863%,7.45098%);fill-opacity:1;" d="M 37.457031 16.328125 L 37.457031 10 L 31.976562 13.164062 L 31.976562 19.492188 Z M 37.457031 16.328125 "/>
<path style=" stroke:none;fill-rule:nonzero;fill:rgb(52.54902%,56.470588%,61.960784%);fill-opacity:0.239216;" d="M 37.457031 23.671875 L 31.976562 20.507812 L 26.492188 23.671875 L 31.976562 26.835938 Z M 37.457031 23.671875 "/>
<path style=" stroke:none;fill-rule:nonzero;fill:rgb(85.098039%,17.647059%,12.54902%);fill-opacity:1;" d="M 26.492188 30 L 31.976562 33.164062 L 31.976562 26.835938 L 26.492188 23.671875 Z M 26.492188 30 "/>
<path style=" stroke:none;fill-rule:nonzero;fill:rgb(40.784314%,12.156863%,7.45098%);fill-opacity:1;" d="M 37.457031 30 L 37.457031 23.671875 L 31.976562 26.835938 L 31.976562 33.164062 Z M 37.457031 30 "/>
<path style=" stroke:none;fill-rule:nonzero;fill:rgb(100%,100%,100%);fill-opacity:1;" d="M 56 30.683594 L 56 9.835938 L 63.433594 9.835938 C 65.046875 9.835938 66.386719 10.113281 67.453125 10.667969 C 68.527344 11.226562 69.328125 11.996094 69.855469 12.980469 C 70.386719 13.957031 70.648438 15.089844 70.648438 16.371094 C 70.648438 17.648438 70.382812 18.769531 69.84375 19.742188 C 69.316406 20.703125 68.515625 21.453125 67.441406 21.992188 C 66.378906 22.527344 65.035156 22.792969 63.421875 22.792969 L 57.792969 22.792969 L 57.792969 20.085938 L 63.136719 20.085938 C 64.15625 20.085938 64.984375 19.941406 65.621094 19.648438 C 66.265625 19.355469 66.738281 18.933594 67.035156 18.375 C 67.335938 17.820312 67.484375 17.152344 67.484375 16.371094 C 67.484375 15.582031 67.332031 14.902344 67.027344 14.324219 C 66.726562 13.746094 66.253906 13.304688 65.609375 13 C 64.972656 12.6875 64.132812 12.53125 63.097656 12.53125 L 59.144531 12.53125 L 59.144531 30.683594 Z M 66.292969 21.277344 L 71.445312 30.683594 L 67.859375 30.683594 L 62.8125 21.277344 Z M 66.292969 21.277344 "/>
<path style=" stroke:none;fill-rule:nonzero;fill:rgb(100%,100%,100%);fill-opacity:1;" d="M 80.777344 31 C 79.234375 31 77.910156 30.671875 76.796875 30.011719 C 75.691406 29.347656 74.835938 28.414062 74.230469 27.210938 C 73.632812 26.003906 73.335938 24.589844 73.335938 22.96875 C 73.335938 21.367188 73.632812 19.953125 74.230469 18.734375 C 74.835938 17.511719 75.675781 16.558594 76.753906 15.871094 C 77.839844 15.1875 79.109375 14.84375 80.5625 14.84375 C 81.445312 14.84375 82.300781 14.988281 83.128906 15.28125 C 83.957031 15.574219 84.699219 16.03125 85.359375 16.65625 C 86.015625 17.28125 86.535156 18.089844 86.914062 19.089844 C 87.296875 20.078125 87.484375 21.285156 87.484375 22.703125 L 87.484375 23.78125 L 75.054688 23.78125 L 75.054688 21.5 L 84.503906 21.5 C 84.503906 20.699219 84.339844 19.992188 84.015625 19.375 C 83.6875 18.75 83.230469 18.257812 82.640625 17.898438 C 82.054688 17.539062 81.371094 17.359375 80.582031 17.359375 C 79.726562 17.359375 78.980469 17.570312 78.34375 17.988281 C 77.710938 18.402344 77.222656 18.945312 76.878906 19.617188 C 76.539062 20.285156 76.367188 21.007812 76.367188 21.785156 L 76.367188 23.566406 C 76.367188 24.613281 76.550781 25.503906 76.917969 26.234375 C 77.292969 26.96875 77.8125 27.527344 78.476562 27.914062 C 79.140625 28.296875 79.917969 28.484375 80.808594 28.484375 C 81.382812 28.484375 81.910156 28.402344 82.386719 28.242188 C 82.859375 28.070312 83.269531 27.820312 83.617188 27.488281 C 83.964844 27.15625 84.226562 26.746094 84.410156 26.257812 L 87.292969 26.773438 C 87.0625 27.625 86.648438 28.367188 86.050781 29.003906 C 85.460938 29.636719 84.714844 30.128906 83.820312 30.480469 C 82.929688 30.828125 81.917969 31 80.777344 31 Z M 80.777344 31 "/>
<path style=" stroke:none;fill-rule:nonzero;fill:rgb(100%,100%,100%);fill-opacity:1;" d="M 96.71875 30.988281 C 95.453125 30.988281 94.328125 30.667969 93.335938 30.023438 C 92.351562 29.371094 91.578125 28.445312 91.015625 27.242188 C 90.460938 26.035156 90.179688 24.585938 90.179688 22.894531 C 90.179688 21.207031 90.460938 19.761719 91.027344 18.558594 C 91.597656 17.359375 92.375 16.4375 93.367188 15.800781 C 94.359375 15.164062 95.480469 14.84375 96.738281 14.84375 C 97.707031 14.84375 98.488281 15.007812 99.078125 15.332031 C 99.675781 15.652344 100.136719 16.023438 100.464844 16.453125 C 100.796875 16.878906 101.054688 17.257812 101.238281 17.582031 L 101.421875 17.582031 L 101.421875 9.835938 L 104.464844 9.835938 L 104.464844 30.683594 L 101.492188 30.683594 L 101.492188 28.25 L 101.238281 28.25 C 101.054688 28.582031 100.789062 28.964844 100.441406 29.390625 C 100.105469 29.820312 99.636719 30.191406 99.039062 30.511719 C 98.441406 30.832031 97.667969 30.988281 96.71875 30.988281 Z M 97.390625 28.394531 C 98.265625 28.394531 99.003906 28.164062 99.609375 27.703125 C 100.21875 27.234375 100.679688 26.585938 100.992188 25.757812 C 101.3125 24.929688 101.472656 23.964844 101.472656 22.867188 C 101.472656 21.78125 101.316406 20.828125 101.003906 20.015625 C 100.691406 19.199219 100.234375 18.566406 99.628906 18.113281 C 99.023438 17.65625 98.277344 17.429688 97.390625 17.429688 C 96.472656 17.429688 95.710938 17.667969 95.097656 18.140625 C 94.488281 18.617188 94.027344 19.265625 93.714844 20.085938 C 93.40625 20.90625 93.253906 21.835938 93.253906 22.867188 C 93.253906 23.910156 93.410156 24.851562 93.722656 25.6875 C 94.035156 26.519531 94.496094 27.183594 95.109375 27.671875 C 95.726562 28.152344 96.484375 28.394531 97.390625 28.394531 Z M 97.390625 28.394531 "/>
<path style=" stroke:none;fill-rule:nonzero;fill:rgb(100%,100%,100%);fill-opacity:1;" d="M 109.054688 30.683594 L 109.054688 9.835938 L 116.6875 9.835938 C 118.167969 9.835938 119.394531 10.078125 120.363281 10.566406 C 121.335938 11.050781 122.058594 11.703125 122.542969 12.53125 C 123.023438 13.355469 123.265625 14.28125 123.265625 15.3125 C 123.265625 16.179688 123.105469 16.914062 122.785156 17.511719 C 122.46875 18.101562 122.039062 18.578125 121.503906 18.9375 C 120.972656 19.289062 120.390625 19.546875 119.753906 19.710938 L 119.753906 19.914062 C 120.445312 19.949219 121.121094 20.171875 121.777344 20.585938 C 122.445312 20.992188 122.992188 21.574219 123.429688 22.328125 C 123.863281 23.078125 124.078125 23.996094 124.078125 25.074219 C 124.078125 26.140625 123.828125 27.097656 123.328125 27.945312 C 122.832031 28.789062 122.0625 29.457031 121.027344 29.953125 C 119.988281 30.441406 118.660156 30.683594 117.042969 30.683594 Z M 112.199219 27.988281 L 116.738281 27.988281 C 118.246094 27.988281 119.324219 27.695312 119.976562 27.109375 C 120.628906 26.527344 120.953125 25.796875 120.953125 24.921875 C 120.953125 24.265625 120.789062 23.660156 120.457031 23.109375 C 120.121094 22.558594 119.648438 22.121094 119.03125 21.796875 C 118.417969 21.472656 117.691406 21.308594 116.851562 21.308594 L 112.199219 21.308594 Z M 112.199219 18.855469 L 116.414062 18.855469 C 117.121094 18.855469 117.753906 18.71875 118.316406 18.449219 C 118.886719 18.175781 119.339844 17.796875 119.671875 17.308594 C 120.011719 16.8125 120.179688 16.226562 120.179688 15.554688 C 120.179688 14.695312 119.878906 13.972656 119.273438 13.386719 C 118.671875 12.804688 117.742188 12.511719 116.496094 12.511719 L 112.199219 12.511719 Z M 112.199219 18.855469 "/>
<path style=" stroke:none;fill-rule:nonzero;fill:rgb(100%,100%,100%);fill-opacity:1;" d="M 127.566406 30.683594 L 127.566406 15.046875 L 130.507812 15.046875 L 130.507812 17.53125 L 130.671875 17.53125 C 130.957031 16.691406 131.457031 16.027344 132.179688 15.546875 C 132.902344 15.058594 133.726562 14.8125 134.640625 14.8125 C 134.832031 14.8125 135.054688 14.820312 135.3125 14.832031 C 135.578125 14.847656 135.785156 14.863281 135.933594 14.882812 L 135.933594 17.796875 C 135.8125 17.761719 135.59375 17.726562 135.28125 17.683594 C 134.972656 17.636719 134.660156 17.613281 134.347656 17.613281 C 133.628906 17.613281 132.984375 17.765625 132.421875 18.070312 C 131.867188 18.371094 131.425781 18.785156 131.097656 19.324219 C 130.773438 19.851562 130.609375 20.457031 130.609375 21.136719 L 130.609375 30.683594 Z M 127.566406 30.683594 "/>
<path style=" stroke:none;fill-rule:nonzero;fill:rgb(100%,100%,100%);fill-opacity:1;" d="M 138.570312 30.683594 L 138.570312 15.046875 L 141.613281 15.046875 L 141.613281 30.683594 Z M 140.105469 12.632812 C 139.578125 12.632812 139.121094 12.457031 138.742188 12.105469 C 138.367188 11.746094 138.183594 11.316406 138.183594 10.824219 C 138.183594 10.320312 138.367188 9.890625 138.742188 9.539062 C 139.121094 9.179688 139.578125 9 140.105469 9 C 140.636719 9 141.085938 9.179688 141.460938 9.539062 C 141.839844 9.890625 142.03125 10.320312 142.03125 10.824219 C 142.03125 11.316406 141.839844 11.746094 141.460938 12.105469 C 141.085938 12.457031 140.636719 12.632812 140.105469 12.632812 Z M 140.105469 12.632812 "/>
<path style=" stroke:none;fill-rule:nonzero;fill:rgb(100%,100%,100%);fill-opacity:1;" d="M 152.292969 31 C 150.78125 31 149.476562 30.65625 148.386719 29.972656 C 147.300781 29.28125 146.464844 28.324219 145.882812 27.109375 C 145.296875 25.894531 145.003906 24.503906 145.003906 22.9375 C 145.003906 21.347656 145.304688 19.949219 145.902344 18.734375 C 146.5 17.511719 147.339844 16.558594 148.425781 15.871094 C 149.511719 15.1875 150.792969 14.84375 152.265625 14.84375 C 153.453125 14.84375 154.511719 15.0625 155.441406 15.503906 C 156.371094 15.941406 157.121094 16.550781 157.691406 17.335938 C 158.265625 18.125 158.609375 19.042969 158.71875 20.097656 L 155.757812 20.097656 C 155.59375 19.363281 155.21875 18.734375 154.636719 18.203125 C 154.058594 17.671875 153.285156 17.410156 152.316406 17.410156 C 151.46875 17.410156 150.722656 17.632812 150.085938 18.082031 C 149.453125 18.523438 148.960938 19.152344 148.609375 19.972656 C 148.257812 20.789062 148.078125 21.753906 148.078125 22.867188 C 148.078125 24.007812 148.253906 24.988281 148.597656 25.816406 C 148.945312 26.644531 149.433594 27.289062 150.066406 27.742188 C 150.703125 28.195312 151.453125 28.425781 152.316406 28.425781 C 152.890625 28.425781 153.414062 28.320312 153.882812 28.109375 C 154.359375 27.890625 154.753906 27.582031 155.074219 27.183594 C 155.398438 26.78125 155.628906 26.300781 155.757812 25.738281 L 158.71875 25.738281 C 158.609375 26.746094 158.28125 27.652344 157.730469 28.445312 C 157.179688 29.238281 156.445312 29.863281 155.523438 30.316406 C 154.605469 30.773438 153.53125 31 152.292969 31 Z M 152.292969 31 "/>
<path style=" stroke:none;fill-rule:nonzero;fill:rgb(100%,100%,100%);fill-opacity:1;" d="M 164.773438 25.378906 L 164.753906 21.664062 L 165.28125 21.664062 L 171.511719 15.046875 L 175.15625 15.046875 L 168.050781 22.582031 L 167.574219 22.582031 Z M 161.972656 30.683594 L 161.972656 9.835938 L 165.019531 9.835938 L 165.019531 30.683594 Z M 171.847656 30.683594 L 166.25 23.253906 L 168.347656 21.125 L 175.585938 30.683594 Z M 171.847656 30.683594 "/>
<path style=" stroke:none;fill-rule:nonzero;fill:rgb(100%,100%,100%);fill-opacity:1;" d="M 187.523438 30.683594 L 184.183594 30.683594 L 191.6875 9.835938 L 195.324219 9.835938 L 202.824219 30.683594 L 199.488281 30.683594 L 193.59375 13.621094 L 193.429688 13.621094 Z M 188.085938 22.519531 L 198.917969 22.519531 L 198.917969 25.167969 L 188.085938 25.167969 Z M 188.085938 22.519531 "/>
<path style=" stroke:none;fill-rule:nonzero;fill:rgb(100%,100%,100%);fill-opacity:1;" d="M 208.980469 9.835938 L 208.980469 30.683594 L 205.835938 30.683594 L 205.835938 9.835938 Z M 208.980469 9.835938 "/>
</g>
</svg>
